<svg width="542" height="648" viewBox="0 0 542 648" fill="none" xmlns="http://www.w3.org/2000/svg">
<g clip-path="url(#clip0_302_92)">
<path d="M516.64 77.7869H523.551C528.846 37.1253 488.105 6.24728 441.376 2.47771C459.728 6.68922 476.522 15.9877 489.834 29.3074C503.145 42.627 512.436 59.4288 516.64 77.7869Z" fill="#F2F2F2"/>
<path d="M409.085 199.105C405.173 199.057 401.426 198.925 397.843 198.709C401.561 199.282 405.335 199.415 409.085 199.105Z" fill="#F2F2F2"/>
<path d="M322.115 99.8966C323.017 46.3368 365.684 2.74879 419.238 2.74879C426.593 1.96762 434.005 1.87687 441.377 2.47772C426.753 -0.841632 411.57 -0.825635 396.954 2.52452C382.338 5.87468 368.663 12.473 356.944 21.8303C345.225 31.1876 335.762 43.0636 329.256 56.5778C322.751 70.092 319.371 84.8976 319.367 99.8966C319.367 150.683 321.184 194.012 397.843 198.709C359.004 192.808 321.407 141.953 322.115 99.8966Z" fill="#F2F2F2"/>
<path d="M515.494 101.461C497.939 131.502 428.915 153.533 419.238 197.046C415.946 198.127 412.538 198.818 409.085 199.105C412.265 199.143 415.547 199.131 418.957 199.052C473.503 199.052 518.244 155.812 519.089 101.461L515.494 101.461Z" fill="#F2F2F2"/>
<path d="M427.076 172.898C414.311 145.199 408.721 115.346 412.636 82.6407C412.031 78.8361 414.151 75.0233 417.376 74.1178L475.168 57.9673C478.394 57.0704 481.501 59.4224 482.113 63.2251L496.553 153.483C497.158 157.287 495.038 161.1 491.813 162.005L434.02 178.156C430.795 179.053 427.688 176.701 427.076 172.898Z" fill="#F2F2F2"/>
<path d="M454.449 67.9521C455.282 61.5034 451.594 55.7119 446.213 55.0164C440.832 54.3209 435.794 58.9848 434.961 65.4335C434.128 71.8821 437.815 77.6736 443.196 78.3691C448.578 79.0646 453.616 74.4007 454.449 67.9521Z" fill="#F2F2F2"/>
<path d="M348.762 128.76C335.997 101.06 330.407 71.2074 334.322 38.5024C333.717 34.6978 335.837 30.885 339.062 29.9795L396.855 13.8289C400.08 12.932 403.187 15.2841 403.799 19.0868L418.239 109.344C418.844 113.149 416.724 116.962 413.5 117.867L355.707 134.018C352.481 134.915 349.374 132.563 348.762 128.76Z" fill="#F2F2F2"/>
<path d="M376.135 23.8138C376.968 17.3651 373.281 11.5736 367.899 10.8781C362.518 10.1826 357.48 14.8465 356.647 21.2952C355.814 27.7438 359.501 33.5353 364.883 34.2308C370.264 34.9263 375.302 30.2624 376.135 23.8138Z" fill="#F2F2F2"/>
<path d="M427.864 428.636H-154V430.53H427.864V428.636Z" fill="#3F3D56"/>
<path d="M82.6817 205.15C81.9953 202.747 91.5916 224.771 89.3088 225.036C78.9112 226.229 55.8717 231.608 48.6299 234.506C48.3037 234.468 47.9776 234.43 47.6611 234.383C46.8842 234.298 46.1264 234.175 45.3782 234.033C28.5157 230.841 15.7586 216.987 15.4133 200.263C15.3941 200.027 15.3941 199.781 15.3941 199.544C15.3919 198.389 15.4527 197.235 15.5763 196.087C15.7351 194.52 16.0076 192.966 16.3916 191.438L16.3533 191.428C9.63897 185.121 12.4686 173.426 21.0245 168.493C24.7422 166.354 28.865 165.016 33.1294 164.563C34.2858 164.437 35.4481 164.374 36.6113 164.373H47.5364C49.7972 163.886 52.0886 163.554 54.3946 163.379H54.4138C76.4079 161.703 93.75 175.112 92.129 191.428C92.1194 191.447 92.1002 191.466 92.0906 191.485C91.6206 192.186 91.2082 192.849 90.8437 193.483C90.4888 194.08 90.1914 194.648 89.9325 195.188C87.9278 199.354 93.0808 204.597 89.6639 205.576C85.1194 206.878 101.616 249.658 83.6284 249.658C92.3781 252.146 84.5751 211.779 82.6817 205.15Z" fill="#2F2E41"/>
<path d="M183.041 618.656L197.227 618.535L203.505 562.533L182.571 562.709L183.041 618.656Z" fill="#FFB6B6"/>
<path d="M228.477 641.218C228.49 642.9 227.835 644.518 226.656 645.718C225.478 646.917 223.871 647.6 222.19 647.617L193.987 647.852L189.05 637.842L187.237 647.903L176.595 648L179.282 612.115L182.985 611.868L198.086 610.827L202.958 610.501L203.043 620.654L225.698 636.024C226.547 636.6 227.243 637.374 227.727 638.279C228.211 639.183 228.469 640.192 228.477 641.218Z" fill="#2F2E41"/>
<path d="M201.023 590.568C195.38 589.886 181.141 588.674 181.141 588.674C181.141 588.674 174.42 574.64 175.508 570.274C176.578 565.89 179.248 565 176.767 562.708C170.727 540.378 171.693 504.109 171.693 504.109C171.693 504.109 139.182 488.361 106.265 470.132C74.0854 452.3 41.5181 432.101 38.5737 421.922C36.6304 414.64 35.3253 407.204 34.6732 399.696C34.181 394.772 33.878 389.942 33.6886 385.615C33.2436 375.709 33.4235 368.389 33.4235 368.389L74.4452 367.707L101.616 367.082H104.456V371.817L111.595 383.957C111.595 383.957 123.931 398.304 122.482 399.639C120.731 401.259 121.261 402.698 127.481 403.872C129.249 404.182 131.051 404.256 132.839 404.09C142.884 403.323 147.088 409.071 147.334 410.331C149.019 419.223 165.918 438.541 181.747 455.028H181.757C196.365 470.255 210.054 483.058 210.054 483.058L210.831 499.393L214.476 575.767C214.476 575.767 207.64 571.941 213.747 580.189C219.853 588.447 206.665 591.24 201.023 590.568Z" fill="#2F2E41"/>
<path d="M354.923 412.982L360.714 400.027L312.41 371.024L303.863 390.141L354.923 412.982Z" fill="#FFB6B6"/>
<path d="M394.334 381.035C395.868 381.723 397.067 382.992 397.667 384.563C398.268 386.134 398.221 387.88 397.536 389.416L386.02 415.168L374.866 415.496L383.259 421.33L378.921 431.05L347.413 413.68L348.729 410.21L354.063 396.04L355.792 391.473L365.059 395.618L388.456 381.403C389.333 380.871 390.326 380.559 391.349 380.495C392.373 380.431 393.397 380.616 394.334 381.035Z" fill="#2F2E41"/>
<path d="M330.076 381.628C330.043 381.702 330.003 381.769 329.97 381.83C327.331 386.675 323 397.886 322.73 398.578C322.723 398.59 322.718 398.604 322.717 398.618C322.717 398.618 308.426 397.882 304.773 395.26C301.114 392.619 306.651 396.795 298.213 391.272C293.85 388.402 278.905 383.92 265.519 380.258C253.065 376.851 241.968 374.171 241.968 374.171C241.968 374.171 232.158 383.102 217.947 395.442L217.94 395.449C204.74 406.886 187.73 421.268 171.246 434.146C135.953 444.529 98.7039 453.526 89.3921 448.471C82.8462 444.74 76.6379 440.445 70.8376 435.635L80.4265 410.495L105.785 383.932L132.478 373.083L142.921 368.836L157.543 362.9L236.708 330.727L324.378 361.101C324.378 361.101 318.272 366.036 328.21 363.433C338.013 360.871 332.834 376.434 330.076 381.628Z" fill="#2F2E41"/>
<path d="M53.3331 235.453H81.7349L86.2067 245.326L105.227 253.803C107.701 254.907 109.881 256.578 111.59 258.679C113.3 260.781 114.492 263.255 115.07 265.902C121.919 297.219 113.256 303.726 112.977 314.052C112.03 349.09 107.152 356.059 107.698 364.709C107.861 367.298 109.441 377.533 114.522 376.569C119.604 375.605 116.865 379.651 118.067 381.224C119.106 382.584 124.572 380.78 121.141 385.295C117.711 389.81 132.377 402.12 123.391 402.12C106.35 402.12 72.2677 410.643 59.0135 410.643C45.7593 410.643 35.5168 414.574 29.665 414.431C26.0984 414.344 27.2135 397.709 28.639 383.302C28.9618 380.04 35.2241 380.125 29.6043 374.077C23.9846 368.029 30.5998 364.886 30.6117 363.294C30.6243 361.603 33.7975 357.344 29.8378 350.376C25.878 343.408 29.5282 346.291 29.3562 344.103C28.0308 327.243 26.1315 305.744 26.1315 305.744L17.7591 282.174C15.619 276.149 15.902 269.529 18.5482 263.709C21.1945 257.889 25.9972 253.324 31.9433 250.978L41.7643 247.103L53.3331 235.453Z" fill="#6C63FF"/>
<path d="M252.804 226.759C252.173 227.937 251.294 228.964 250.227 229.768C249.16 230.572 247.931 231.135 246.625 231.418C245.32 231.701 243.968 231.696 242.664 231.405C241.36 231.114 240.135 230.543 239.074 229.732L199.064 252.389L190.078 242.86L237.795 216.297C239.293 214.612 241.357 213.534 243.597 213.269C245.836 213.004 248.095 213.57 249.945 214.86C251.795 216.149 253.108 218.073 253.635 220.266C254.162 222.459 253.867 224.77 252.804 226.759Z" fill="#FFB6B6"/>
<path d="M72.6594 280.24L72.0502 287.537L151.702 286.512L230.987 241.928L219.396 224.083L149.709 253.391L100.18 254.396C93.21 254.537 86.5393 257.257 81.4566 262.03C76.3739 266.803 73.2398 273.291 72.6594 280.24Z" fill="#6C63FF"/>
<path d="M63.0478 230.251C77.3335 230.251 88.9144 218.667 88.9144 204.378C88.9144 190.089 77.3335 178.505 63.0478 178.505C48.762 178.505 37.1812 190.089 37.1812 204.378C37.1812 218.667 48.762 230.251 63.0478 230.251Z" fill="#FFB6B6"/>
<path d="M92.129 192.839C91.6973 193.066 91.2753 193.275 90.8436 193.483C90.3928 193.701 89.942 193.919 89.4912 194.118C80.8297 198.048 73.7797 198.483 69.5017 192.839C69.3872 189.869 68.7203 186.947 67.5354 184.222C67.7446 187.267 66.9421 190.297 65.2525 192.839H56.639C47.7665 198.729 43.2104 199.345 49.3684 218.682C51.0853 224.07 57.9122 255.425 55.2265 260.074C54.4496 259.989 46.1263 234.175 45.3782 234.033C28.5157 230.841 15.7585 216.987 15.4132 200.263C15.4324 199.411 15.4899 198.559 15.5762 197.726C16.6871 196.055 17.908 194.461 19.2307 192.953C19.224 188.483 20.2516 184.071 22.233 180.065C24.7397 174.988 28.6473 170.736 33.4938 167.811C36.3826 166.41 39.3944 165.278 42.491 164.43C42.5678 164.411 42.6349 164.392 42.7116 164.373C43.6612 164.117 44.63 163.881 45.5988 163.682C47.6001 163.259 49.6241 162.953 51.6608 162.763C51.8047 162.754 51.9486 162.744 52.0829 162.744C52.8961 162.746 53.6942 162.965 54.3945 163.379C54.4041 163.379 54.4041 163.388 54.4137 163.388C54.9141 163.681 55.3511 164.07 55.699 164.534C56.3116 165.314 56.6429 166.279 56.639 167.271H66.2309C66.5858 167.271 66.9407 167.28 67.2956 167.299C73.6973 167.518 79.787 170.119 84.3729 174.592C88.9589 179.065 91.7109 185.089 92.0906 191.485C92.1193 191.94 92.129 192.385 92.129 192.839Z" fill="#2F2E41"/>
<path d="M27.7715 197.574C37.1831 197.574 44.8126 189.943 44.8126 180.529C44.8126 171.115 37.1831 163.483 27.7715 163.483C18.36 163.483 10.7305 171.115 10.7305 180.529C10.7305 189.943 18.36 197.574 27.7715 197.574Z" fill="#2F2E41"/>
<path d="M48.5995 167.271C48.9249 176.679 40.9699 184.316 31.5584 184.316C27.0388 184.316 22.7044 182.521 19.5085 179.324C16.3127 176.127 14.5173 171.792 14.5173 167.271C14.5173 157.857 25.9154 157.759 31.5584 150.225C39.5413 139.567 48.1606 154.583 48.5995 167.271Z" fill="#2F2E41"/>
<path d="M70.8805 433.92C68.2344 394.646 75.9808 357.704 97.494 323.849C98.0352 321.622 99.4375 319.7 101.393 318.506C103.349 317.311 105.699 316.942 107.927 317.478L191.033 337.582C193.26 338.124 195.181 339.526 196.375 341.483C197.569 343.439 197.939 345.789 197.402 348.018L170.789 458.089C170.248 460.316 168.846 462.238 166.89 463.432C164.934 464.627 162.584 464.996 160.357 464.46L77.2497 444.356C75.0231 443.814 73.102 442.412 71.908 440.455C70.7139 438.499 70.3444 436.149 70.8805 433.92Z" fill="#F2F2F2"/>
<path opacity="0.2" d="M87.167 442.261C84.9404 441.72 83.0193 440.318 81.8253 438.361C80.6313 436.405 80.2618 434.055 80.7979 431.826C78.1517 392.552 85.8981 355.609 107.411 321.755C107.774 320.294 108.516 318.955 109.562 317.874L107.926 317.478C105.699 316.942 103.349 317.311 101.393 318.506C99.4375 319.7 98.0351 321.621 97.4939 323.849C75.9807 357.703 68.2343 394.646 70.8805 433.92C70.3444 436.149 70.7139 438.499 71.9079 440.455C73.1019 442.411 75.023 443.814 77.2496 444.355L160.356 464.46C161.834 464.812 163.378 464.767 164.832 464.33C166.287 463.893 167.6 463.079 168.638 461.97L87.167 442.261Z" fill="black"/>
<path d="M162.412 395.925L106.684 382.607C105.798 382.394 105.032 381.839 104.556 381.062C104.079 380.285 103.93 379.351 104.142 378.464C104.354 377.578 104.909 376.811 105.685 376.334C106.461 375.856 107.395 375.707 108.281 375.918L164.01 389.236C164.894 389.45 165.657 390.006 166.132 390.783C166.607 391.559 166.755 392.491 166.543 393.376C166.332 394.261 165.779 395.027 165.004 395.504C164.23 395.982 163.298 396.133 162.412 395.925Z" fill="white"/>
<path d="M123.325 367.195L111.065 364.265C110.178 364.055 109.412 363.501 108.933 362.726C108.454 361.951 108.302 361.017 108.511 360.13C108.72 359.243 109.272 358.476 110.047 357.996C110.821 357.516 111.754 357.363 112.641 357.571L112.663 357.576L124.923 360.506C125.807 360.72 126.57 361.276 127.045 362.053C127.52 362.829 127.668 363.762 127.456 364.647C127.245 365.532 126.691 366.297 125.917 366.774C125.143 367.252 124.211 367.403 123.325 367.195Z" fill="white"/>
<path d="M155.389 425.332L99.6598 412.014C98.7753 411.8 98.0119 411.244 97.5368 410.468C97.0616 409.692 96.9135 408.758 97.125 407.873C97.3365 406.988 97.8902 406.223 98.6648 405.745C99.4394 405.267 100.372 405.116 101.257 405.325L156.986 418.643C157.426 418.746 157.842 418.935 158.209 419.199C158.576 419.462 158.887 419.796 159.125 420.18C159.363 420.564 159.523 420.992 159.596 421.438C159.669 421.884 159.653 422.34 159.549 422.78C159.446 423.22 159.256 423.635 158.992 424.002C158.728 424.369 158.394 424.68 158.01 424.917C157.625 425.155 157.198 425.314 156.751 425.386C156.305 425.458 155.849 425.442 155.41 425.337L155.389 425.332Z" fill="white"/>
<path d="M158.901 410.629L103.172 397.311C102.285 397.1 101.518 396.545 101.04 395.769C100.561 394.992 100.411 394.057 100.622 393.17C100.833 392.283 101.387 391.516 102.164 391.037C102.94 390.559 103.874 390.409 104.762 390.62L104.769 390.621L160.498 403.939C161.383 404.154 162.146 404.71 162.621 405.486C163.096 406.262 163.244 407.195 163.033 408.081C162.822 408.966 162.268 409.731 161.493 410.209C160.719 410.686 159.786 410.837 158.901 410.629Z" fill="white"/>
<path d="M147.12 341.56C155.036 341.56 161.454 335.14 161.454 327.222C161.454 319.303 155.036 312.883 147.12 312.883C139.203 312.883 132.785 319.303 132.785 327.222C132.785 335.14 139.203 341.56 147.12 341.56Z" fill="#3F3D56"/>
<path d="M74.8437 442.129C73.6745 441.482 72.6595 440.59 71.8691 439.512C71.0787 438.435 70.5317 437.199 70.2659 435.889C70.0001 434.579 70.0219 433.228 70.3298 431.927C70.6377 430.627 71.2243 429.409 72.049 428.358L49.9141 388.05L59.555 379.184L85.495 427.251C87.1609 428.771 88.2114 430.85 88.4475 433.093C88.6836 435.336 88.0888 437.588 86.7759 439.422C85.463 441.256 83.5231 442.544 81.3239 443.043C79.1248 443.542 76.8191 443.217 74.8437 442.129Z" fill="#FFB6B6"/>
<path d="M48.99 263.706L25.1828 261.408C24.0721 261.301 22.9513 261.427 21.8923 261.779C20.8333 262.13 19.8595 262.7 19.0335 263.45C18.2075 264.2 17.5474 265.115 17.0958 266.136C16.6441 267.156 16.4108 268.26 16.4108 269.376V340.241L59.9602 420.113L77.948 408.749L49.5462 338.673L48.99 263.706Z" fill="#6C63FF"/>
<path d="M236.938 257.955C242.458 218.981 257.666 184.435 285.705 155.754C286.695 153.687 288.463 152.097 290.624 151.332C292.784 150.568 295.159 150.691 297.228 151.676L374.392 188.516C376.459 189.505 378.049 191.275 378.813 193.435C379.578 195.596 379.454 197.972 378.469 200.042L329.702 302.242C328.713 304.31 326.944 305.9 324.784 306.665C322.624 307.429 320.249 307.305 318.179 306.32L241.016 269.481C238.949 268.491 237.359 266.722 236.594 264.561C235.83 262.4 235.954 260.025 236.938 257.955Z" fill="#F2F2F2"/>
<path opacity="0.2" d="M251.152 269.481C249.085 268.491 247.495 266.722 246.73 264.561C245.966 262.4 246.09 260.024 247.074 257.955C252.594 218.981 267.802 184.435 295.841 155.754C296.498 154.4 297.5 153.243 298.747 152.401L297.228 151.676C295.159 150.691 292.784 150.567 290.624 151.332C288.464 152.096 286.695 153.687 285.705 155.754C257.666 184.435 242.459 218.981 236.938 257.955C235.954 260.024 235.83 262.4 236.594 264.561C237.359 266.722 238.949 268.491 241.016 269.481L318.179 306.32C319.552 306.97 321.072 307.245 322.586 307.118C324.099 306.99 325.552 306.465 326.797 305.595L251.152 269.481Z" fill="black"/>
<path d="M334.342 239.688L282.565 215.144C281.741 214.754 281.106 214.052 280.799 213.193C280.493 212.334 280.54 211.388 280.93 210.564C281.321 209.74 282.022 209.105 282.881 208.798C283.74 208.491 284.685 208.539 285.509 208.929L337.286 233.473C338.107 233.865 338.739 234.567 339.043 235.425C339.347 236.282 339.299 237.225 338.91 238.047C338.52 238.87 337.821 239.504 336.965 239.811C336.109 240.119 335.166 240.074 334.342 239.688Z" fill="white"/>
<path d="M302.03 203.502L290.639 198.103C290.23 197.911 289.862 197.64 289.558 197.306C289.253 196.973 289.018 196.582 288.864 196.157C288.711 195.732 288.643 195.281 288.664 194.829C288.685 194.378 288.794 193.935 288.986 193.526C289.179 193.117 289.45 192.75 289.784 192.446C290.118 192.142 290.508 191.906 290.934 191.753C291.359 191.6 291.81 191.533 292.261 191.554C292.712 191.576 293.155 191.686 293.563 191.878L293.583 191.888L304.974 197.287C305.795 197.68 306.428 198.381 306.732 199.239C307.037 200.097 306.989 201.04 306.599 201.863C306.21 202.686 305.51 203.32 304.653 203.627C303.797 203.935 302.853 203.89 302.03 203.502Z" fill="white"/>
<path d="M321.398 267.01L269.62 242.467C268.799 242.074 268.167 241.372 267.862 240.515C267.557 239.657 267.605 238.713 267.995 237.891C268.384 237.068 269.084 236.434 269.941 236.126C270.798 235.819 271.741 235.864 272.565 236.252L324.342 260.795C324.751 260.987 325.117 261.258 325.421 261.592C325.725 261.926 325.961 262.316 326.114 262.741C326.267 263.166 326.335 263.617 326.314 264.068C326.293 264.519 326.183 264.961 325.991 265.37C325.799 265.779 325.528 266.145 325.194 266.45C324.861 266.754 324.47 266.989 324.046 267.142C323.621 267.295 323.17 267.363 322.719 267.342C322.268 267.321 321.826 267.211 321.417 267.019L321.398 267.01Z" fill="white"/>
<path d="M327.87 253.349L276.092 228.805C275.268 228.416 274.632 227.715 274.325 226.856C274.017 225.997 274.063 225.052 274.452 224.227C274.842 223.403 275.543 222.767 276.401 222.459C277.26 222.151 278.205 222.197 279.029 222.587L279.037 222.59L330.814 247.134C331.635 247.526 332.267 248.228 332.571 249.086C332.876 249.943 332.828 250.887 332.438 251.709C332.049 252.531 331.349 253.166 330.493 253.473C329.636 253.78 328.693 253.736 327.87 253.349Z" fill="white"/>
<path d="M333.564 183.644C341.481 183.644 347.899 177.225 347.899 169.306C347.899 161.388 341.481 154.968 333.564 154.968C325.648 154.968 319.23 161.388 319.23 169.306C319.23 177.225 325.648 183.644 333.564 183.644Z" fill="#3F3D56"/>
<path d="M457.263 308.445C441.717 274.711 434.909 238.355 439.677 198.526C438.94 193.892 441.522 189.249 445.449 188.146L515.832 168.477C519.76 167.385 523.543 170.249 524.289 174.88L541.875 284.8C542.611 289.433 540.029 294.076 536.103 295.179L465.72 314.848C461.792 315.94 458.008 313.076 457.263 308.445Z" fill="#F2F2F2"/>
<path opacity="0.2" d="M472.571 308.505C468.643 309.597 464.86 306.733 464.114 302.102C448.568 268.368 441.76 232.012 446.528 192.182C446.303 190.703 446.408 189.193 446.834 187.759L445.449 188.146C441.522 189.249 438.94 193.892 439.677 198.525C434.909 238.355 441.716 274.711 457.263 308.445C458.008 313.076 461.791 315.94 465.72 314.848L536.102 295.179C537.443 294.729 538.647 293.947 539.603 292.906C540.559 291.864 541.235 290.597 541.569 289.223L472.571 308.505Z" fill="black"/>
<path d="M514.07 233.297L466.93 246.631C465.367 247.071 463.86 245.934 463.562 244.091C463.393 243.244 463.529 242.364 463.948 241.607C464.366 240.851 465.038 240.267 465.846 239.96L512.986 226.626C514.549 226.19 516.055 227.331 516.349 229.174C516.516 230.02 516.379 230.898 515.962 231.652C515.545 232.406 514.875 232.989 514.07 233.297Z" fill="white"/>
<path d="M474.329 225.405L463.958 228.339C462.397 228.787 460.885 227.657 460.581 225.817C460.408 224.968 460.542 224.086 460.959 223.327C461.376 222.569 462.048 221.982 462.857 221.673L462.874 221.668L473.245 218.734C474.808 218.298 476.314 219.439 476.608 221.283C476.776 222.129 476.639 223.006 476.221 223.761C475.804 224.515 475.134 225.098 474.329 225.405Z" fill="white"/>
<path d="M518.834 262.625L471.694 275.959C470.131 276.395 468.625 275.254 468.331 273.411C468.163 272.565 468.3 271.687 468.718 270.933C469.135 270.179 469.805 269.596 470.61 269.288L517.75 255.954C519.311 255.506 520.823 256.635 521.128 258.476C521.3 259.324 521.166 260.206 520.749 260.965C520.332 261.724 519.66 262.31 518.852 262.62L518.834 262.625Z" fill="white"/>
<path d="M516.452 247.961L469.312 261.295C467.75 261.739 466.24 260.606 465.939 258.765C465.768 257.916 465.903 257.035 466.321 256.277C466.739 255.519 467.412 254.934 468.221 254.626L468.228 254.624L515.368 241.29C516.931 240.854 518.437 241.995 518.731 243.838C518.898 244.684 518.761 245.561 518.344 246.316C517.927 247.07 517.257 247.653 516.452 247.961Z" fill="white"/>
<path d="M490.598 180.637C491.613 172.784 487.122 165.731 480.568 164.884C474.015 164.037 467.88 169.716 466.865 177.57C465.851 185.423 470.341 192.476 476.895 193.323C483.448 194.17 489.584 188.491 490.598 180.637Z" fill="#3F3D56"/>
</g>
<defs>
<clipPath id="clip0_302_92">
<rect width="696" height="648" fill="white" transform="translate(-154)"/>
</clipPath>
</defs>
</svg>
