<svg width="467" height="408" viewBox="0 0 467 408" fill="none" xmlns="http://www.w3.org/2000/svg">
<g clip-path="url(#clip0_0_1)">
<path d="M87.7508 287.321L82.935 325.217L75.8481 282.168C41.7891 269.113 1.96644 266.577 1.96644 266.577C1.96644 266.577 -6.82153 348.797 22.1933 383.176C51.2082 417.555 81.7992 412.329 107.038 391.075C132.277 369.821 142.607 340.587 113.592 306.208C107.134 298.556 98.0173 292.35 87.7508 287.321Z" fill="#F2F2F2"/>
<path d="M78.3069 330.946L79.7371 332.641C96.2604 352.423 105.906 370.593 108.513 386.91C108.556 387.147 108.582 387.383 108.624 387.62L107.518 387.791L106.453 387.942C103.83 370.159 92.4507 351.484 78.043 334.225C77.584 333.665 77.1181 333.095 76.6353 332.54C70.4716 325.288 63.8173 318.306 57.0712 311.76C56.5535 311.248 56.0203 310.736 55.4872 310.223C46.5381 301.628 37.5064 293.821 29.4393 287.224C28.8712 286.756 28.2947 286.294 27.7253 285.84C14.025 274.731 3.35416 267.314 0.974979 265.686C0.68835 265.483 0.525975 265.376 0.489258 265.349L1.09594 264.451L1.09725 264.435L1.71234 263.53C1.74909 263.556 2.29541 263.914 3.28103 264.606C6.98336 267.171 16.9293 274.223 29.2616 284.188C29.8155 284.64 30.392 285.102 30.9601 285.571C37.5123 290.917 44.6694 297.031 51.8804 303.703C53.6944 305.375 55.462 307.044 57.1832 308.709C57.7247 309.214 58.2578 309.727 58.7755 310.238C66.069 317.314 72.5795 324.217 78.3069 330.946Z" fill="white"/>
<path d="M29.2616 284.188C28.7626 284.737 28.2553 285.294 27.7254 285.841C26.2882 287.328 24.7758 288.74 23.1941 290.073C16.4595 295.759 8.5335 299.864 0 302.085C0.0225063 302.826 0.0450579 303.568 0.0662487 304.325C9.09976 302.056 17.4947 297.755 24.6101 291.751C26.2985 290.328 27.9105 288.817 29.4393 287.224C29.9608 286.685 30.4682 286.128 30.96 285.571C35.0431 280.994 38.4067 275.824 40.9356 270.238C40.1851 270.081 39.4501 269.925 38.7305 269.77C36.3021 275.016 33.1114 279.874 29.2616 284.188Z" fill="white"/>
<path d="M57.1833 308.709C56.6321 309.23 56.0668 309.735 55.4873 310.223C55.318 310.38 55.1333 310.536 54.9569 310.684C47.6515 316.836 38.9652 321.133 29.6384 323.207C20.3117 325.281 10.6211 325.072 1.39282 322.597C1.47462 323.374 1.55642 324.152 1.65371 324.931C11.1183 327.329 21.0185 327.439 30.5342 325.253C40.05 323.067 48.9074 318.648 56.3729 312.362C56.6081 312.164 56.8432 311.966 57.0713 311.76C57.652 311.256 58.2174 310.751 58.7756 310.238C67.3553 302.228 73.4439 291.919 76.3133 280.544C75.6268 280.275 74.9403 280.007 74.2455 279.745C71.5006 290.853 65.5709 300.918 57.1833 308.709Z" fill="white"/>
<path d="M78.3069 330.946C77.7616 331.492 77.202 332.02 76.6353 332.54C76.0267 333.096 75.411 333.643 74.7811 334.174C64.955 342.429 52.7163 347.283 39.8973 348.009C27.0783 348.735 14.3688 345.294 3.67163 338.201C3.86723 339.198 4.05568 340.188 4.26804 341.171C15.2958 347.949 28.1812 351.083 41.0936 350.128C54.0061 349.173 66.2889 344.177 76.1971 335.852C76.827 335.321 77.4498 334.782 78.043 334.225C78.6251 333.706 79.1847 333.178 79.7371 332.641C90.8283 321.713 97.3479 306.984 97.9755 291.435C97.2752 290.963 96.5568 290.52 95.8314 290.069C95.5334 305.453 89.2474 320.115 78.3069 330.946Z" fill="white"/>
<path d="M268.029 96.4439V35.356C268.029 25.979 264.3 16.9861 257.663 10.3556C251.025 3.72509 242.022 6.47477e-05 232.635 7.00759e-10H103.07C98.4215 -2.92303e-05 93.8189 0.914454 89.5246 2.69124C85.2303 4.46802 81.3284 7.07231 78.0416 10.3554C74.7549 13.6385 72.1477 17.5361 70.3689 21.8257C68.5901 26.1153 67.6745 30.7128 67.6745 35.3559V75.9262H65.3979V90.2211H67.6745V105.469H65.3979V127.388H67.6745V136.918H65.3979V158.837H67.6745V370.489C67.6745 375.132 68.59 379.729 70.3687 384.019C72.1475 388.309 74.7546 392.206 78.0413 395.489C81.328 398.772 85.2299 401.377 89.5242 403.154C93.8185 404.93 98.4211 405.845 103.069 405.845H232.634C237.282 405.845 241.885 404.93 246.179 403.154C250.474 401.377 254.376 398.773 257.662 395.489C260.949 392.206 263.556 388.309 265.335 384.019C267.114 379.73 268.029 375.132 268.029 370.489V139.927H270.262V96.4439H268.029Z" fill="#3F3D56"/>
<path d="M234.062 9.19842H217.15C217.928 11.1031 218.225 13.1697 218.014 15.216C217.804 17.2624 217.094 19.2257 215.945 20.9331C214.796 22.6404 213.245 24.0394 211.427 25.0067C209.61 25.9741 207.582 26.4801 205.523 26.4803H131.297C129.237 26.4801 127.21 25.9741 125.392 25.0067C123.575 24.0394 122.023 22.6404 120.875 20.9331C119.726 19.2257 119.015 17.2624 118.805 15.216C118.595 13.1697 118.892 11.1031 119.67 9.19839H103.873C96.8631 9.19839 90.1399 11.9802 85.1828 16.9318C80.2258 21.8834 77.4409 28.5992 77.4409 35.6018V370.243C77.4409 373.71 78.1246 377.144 79.4529 380.347C80.7813 383.551 82.7283 386.461 85.1828 388.913C87.6373 391.365 90.5512 393.31 93.7581 394.637C96.965 395.964 100.402 396.646 103.873 396.646H234.063C241.073 396.646 247.796 393.865 252.753 388.913C257.71 383.961 260.495 377.246 260.495 370.243V35.6018C260.495 32.1345 259.811 28.7011 258.483 25.4977C257.155 22.2943 255.208 19.3836 252.753 16.9318C250.299 14.48 247.385 12.5351 244.178 11.2082C240.971 9.88135 237.534 9.19841 234.062 9.19842Z" fill="white"/>
<path d="M237.337 125.657H100.599C99.6459 125.656 98.7323 125.277 98.0585 124.604C97.3848 123.931 97.0057 123.018 97.0046 122.067V66.645C97.0057 65.6932 97.3848 64.7807 98.0585 64.1076C98.7323 63.4346 99.6459 63.056 100.599 63.0549H237.337C238.29 63.056 239.204 63.4346 239.877 64.1076C240.551 64.7807 240.93 65.6932 240.931 66.645V122.067C240.93 123.019 240.551 123.931 239.877 124.604C239.204 125.277 238.29 125.656 237.337 125.657Z" fill="#6C63FF"/>
<path d="M224.317 151.884H113.619C112.57 151.884 111.565 151.468 110.823 150.727C110.082 149.987 109.665 148.982 109.665 147.935C109.665 146.887 110.082 145.883 110.823 145.142C111.565 144.402 112.57 143.986 113.619 143.986H224.317C225.366 143.986 226.371 144.402 227.113 145.142C227.854 145.883 228.271 146.887 228.271 147.935C228.271 148.982 227.854 149.987 227.113 150.727C226.371 151.468 225.366 151.884 224.317 151.884Z" fill="#6C63FF"/>
<path d="M224.317 171.989H113.619C112.475 171.989 111.378 171.535 110.569 170.727C109.76 169.919 109.306 168.823 109.306 167.681C109.306 166.538 109.76 165.442 110.569 164.634C111.378 163.826 112.475 163.372 113.619 163.372H224.317C225.461 163.372 226.558 163.826 227.367 164.634C228.176 165.442 228.63 166.538 228.63 167.681C228.63 168.823 228.176 169.919 227.367 170.727C226.558 171.535 225.461 171.989 224.317 171.989Z" fill="#E4E4E4"/>
<path d="M224.317 191.735H113.619C112.475 191.735 111.378 191.281 110.569 190.473C109.76 189.665 109.306 188.569 109.306 187.426C109.306 186.284 109.76 185.188 110.569 184.38C111.378 183.572 112.475 183.118 113.619 183.118H224.317C225.461 183.118 226.558 183.572 227.367 184.38C228.176 185.188 228.63 186.284 228.63 187.426C228.63 188.569 228.176 189.665 227.367 190.473C226.558 191.281 225.461 191.735 224.317 191.735Z" fill="#E4E4E4"/>
<path d="M237.337 291.522H100.599C99.6459 291.521 98.7323 291.142 98.0585 290.469C97.3848 289.796 97.0057 288.884 97.0046 287.932V232.51C97.0057 231.558 97.3848 230.646 98.0585 229.973C98.7323 229.3 99.6459 228.921 100.599 228.92H237.337C238.29 228.921 239.204 229.3 239.877 229.973C240.551 230.646 240.93 231.558 240.931 232.51V287.932C240.93 288.884 240.551 289.796 239.877 290.469C239.204 291.142 238.29 291.521 237.337 291.522Z" fill="#E4E4E4"/>
<path d="M224.317 318.108H113.619C112.475 318.108 111.378 317.654 110.569 316.846C109.76 316.038 109.306 314.943 109.306 313.8C109.306 312.657 109.76 311.562 110.569 310.754C111.378 309.946 112.475 309.492 113.619 309.492H224.317C225.461 309.492 226.558 309.946 227.367 310.754C228.176 311.562 228.63 312.657 228.63 313.8C228.63 314.943 228.176 316.038 227.367 316.846C226.558 317.654 225.461 318.108 224.317 318.108Z" fill="#E4E4E4"/>
<path d="M224.317 337.854H113.619C112.475 337.854 111.378 337.4 110.569 336.592C109.76 335.784 109.306 334.688 109.306 333.546C109.306 332.403 109.76 331.307 110.569 330.499C111.378 329.692 112.475 329.238 113.619 329.238H224.317C225.461 329.238 226.558 329.692 227.367 330.499C228.176 331.307 228.63 332.403 228.63 333.546C228.63 334.688 228.176 335.784 227.367 336.592C226.558 337.4 225.461 337.854 224.317 337.854Z" fill="#E4E4E4"/>
<path d="M224.317 357.6H113.619C112.475 357.6 111.378 357.146 110.569 356.338C109.76 355.53 109.306 354.434 109.306 353.292C109.306 352.149 109.76 351.053 110.569 350.245C111.378 349.437 112.475 348.984 113.619 348.984H224.317C225.461 348.984 226.558 349.437 227.367 350.245C228.176 351.053 228.63 352.149 228.63 353.292C228.63 354.434 228.176 355.53 227.367 356.338C226.558 357.146 225.461 357.6 224.317 357.6Z" fill="#E4E4E4"/>
<path d="M348.559 105.075C347.168 94.8862 345.424 83.9472 338.23 76.5923C335.947 74.2585 333.215 72.4107 330.198 71.1603C327.182 69.9098 323.942 69.2825 320.676 69.3163C317.41 69.35 314.185 70.0442 311.194 71.3567C308.204 72.6693 305.511 74.5732 303.277 76.9536C298.04 82.5341 295.727 90.3699 295.516 98.0158C295.304 105.662 297.009 113.223 298.9 120.635C308.908 120.834 318.842 118.881 328.027 114.908C330.278 113.81 332.614 112.894 335.011 112.169C337.438 111.552 339.168 113.105 341.425 114.187L342.664 111.817C343.679 113.703 346.82 113.144 347.959 111.331C349.098 109.518 348.848 107.196 348.559 105.075Z" fill="#2F2E41"/>
<path d="M440.23 384.152L432.88 389.008L410.631 362.997L421.48 355.831L440.23 384.152Z" fill="#9E616A"/>
<path d="M446.817 390.031L423.116 405.688L422.917 405.389C421.299 402.945 420.72 399.959 421.305 397.088C421.891 394.217 423.595 391.696 426.041 390.079L440.518 380.516L446.817 390.031Z" fill="#2F2E41"/>
<path d="M345.342 397.155H336.53L332.337 363.2L345.344 363.201L345.342 397.155Z" fill="#9E616A"/>
<path d="M347.59 405.688L319.174 405.687V405.328C319.174 402.398 320.34 399.588 322.414 397.516C324.488 395.444 327.301 394.28 330.234 394.28L347.59 394.281L347.59 405.688Z" fill="#2F2E41"/>
<path d="M282.641 163.817L249.368 140.075C249.514 138.831 249.296 137.571 248.739 136.449C248.182 135.327 247.311 134.391 246.231 133.755C245.151 133.118 243.909 132.809 242.657 132.865C241.405 132.921 240.195 133.339 239.176 134.069C238.157 134.798 237.373 135.808 236.918 136.975C236.463 138.142 236.357 139.416 236.614 140.642C236.871 141.868 237.479 142.993 238.364 143.88C239.249 144.767 240.373 145.378 241.599 145.638C245.758 149.126 276.137 179.305 280.486 177.714C284.901 176.098 304.203 173.173 304.203 173.173L304.74 154.867L282.641 163.817Z" fill="#9E616A"/>
<path d="M308.784 207.014L309.098 248.788C309.098 248.788 316.299 310.683 318.955 321.139C321.61 331.595 332.39 379.979 332.39 379.979L349.914 377.155L338.629 313.898L342.04 261.469L361.71 314.013L411.657 366.166L424.316 355.963L380.841 292.144L367.563 239.863C367.563 239.863 369.214 212.822 354.336 202.408L308.784 207.014Z" fill="#2F2E41"/>
<path d="M318.85 115.155C329.458 115.155 338.058 106.565 338.058 95.9688C338.058 85.3724 329.458 76.7824 318.85 76.7824C308.242 76.7824 299.643 85.3724 299.643 95.9688C299.643 106.565 308.242 115.155 318.85 115.155Z" fill="#9E616A"/>
<path d="M323.848 213.755L316.709 229.673L337.425 238.943L344.564 223.025L323.848 213.755Z" fill="#2F2E41"/>
<path d="M349.614 132.885C347.35 128.385 346.251 122.826 341.425 121.368C338.167 120.382 324.987 121.859 322.017 123.522C317.077 126.288 321.554 131.471 318.639 136.322C315.471 141.595 312.303 146.868 309.135 152.141C306.957 155.766 304.756 159.442 303.578 163.503C302.4 167.564 302.344 172.121 304.35 175.844C306.146 179.176 309.398 181.539 311.204 184.866C313.082 188.325 309.711 203.772 307.963 207.299L308.802 207.686C320.422 208.368 332.08 207.976 343.628 206.516C346.494 206.153 349.47 205.68 351.832 204.018C355.31 201.57 356.686 197.128 357.545 192.965C361.682 172.615 358.89 151.468 349.614 132.885Z" fill="#E4E4E4"/>
<path d="M310.305 176.464C315.508 171.356 320.739 166.217 325.023 160.317C329.306 154.417 332.637 147.665 333.567 140.436C333.965 138.13 333.807 135.762 333.106 133.529C332.308 131.339 330.541 129.396 328.263 128.897C324.617 128.097 321.302 131.004 318.701 133.677C311.03 141.56 303.359 149.443 295.688 157.326C300.574 163.751 305.46 170.176 310.347 176.601L310.305 176.464Z" fill="#E4E4E4"/>
<path d="M367.023 180.399C365.406 175.989 362.478 156.709 362.478 156.709L344.151 156.172L353.111 178.247L328.661 212.437C328.661 212.437 328.707 212.512 328.789 212.646C327.503 212.44 326.186 212.626 325.008 213.181C323.83 213.735 322.847 214.632 322.188 215.753C321.529 216.875 321.224 218.169 321.314 219.466C321.403 220.764 321.882 222.004 322.689 223.025C323.495 224.046 324.592 224.799 325.834 225.188C327.077 225.576 328.408 225.58 329.653 225.201C330.898 224.821 331.999 224.074 332.813 223.059C333.626 222.043 334.114 220.806 334.212 219.51C334.302 219.561 334.407 219.58 334.51 219.562C334.612 219.545 334.705 219.492 334.773 219.414C337.493 216.003 368.64 184.809 367.023 180.399Z" fill="#9E616A"/>
<path d="M368.886 168.223C367.204 161.131 365.509 154.001 362.673 147.286C359.837 140.571 355.777 134.228 350.067 129.692C348.298 128.158 346.188 127.067 343.912 126.51C341.623 126.059 339.044 126.564 337.437 128.253C334.865 130.955 335.639 135.292 336.582 138.899C339.364 149.536 342.145 160.173 344.927 170.809C352.959 169.959 360.992 169.108 369.024 168.258L368.886 168.223Z" fill="#E4E4E4"/>
<path d="M342.862 97.4611C342.262 92.8198 341.634 88.1395 340.224 83.7692C338.813 79.3988 336.539 75.3054 333.277 72.8296C328.112 68.9099 321.425 69.6659 315.634 71.9206C311.156 73.6643 306.784 76.3146 303.626 80.5754C300.468 84.8362 298.694 90.9159 299.869 96.487C306.046 94.7698 312.223 93.0527 318.4 91.3355L317.724 91.8977C321.732 94.1539 324.777 98.8221 325.686 104.108C326.6 109.375 325.431 114.791 322.425 119.213C326.638 117.455 330.851 115.697 335.063 113.938C337.664 112.853 340.447 111.603 341.988 108.819C343.776 105.591 343.361 101.313 342.862 97.4611Z" fill="#2F2E41"/>
<path d="M252.176 127.54L239.82 146.064C239.525 146.508 239.124 146.873 238.652 147.124C238.181 147.375 237.654 147.504 237.12 147.501C236.485 147.501 235.863 147.313 235.334 146.961C234.806 146.609 234.393 146.108 234.148 145.523C234.061 145.325 233.997 145.118 233.955 144.907C233.788 144.066 233.961 143.194 234.436 142.48L246.792 123.957C247.028 123.604 247.33 123.3 247.683 123.064C248.036 122.828 248.432 122.663 248.849 122.58C249.265 122.497 249.694 122.496 250.111 122.578C250.528 122.661 250.924 122.824 251.278 123.059C251.631 123.295 251.935 123.597 252.171 123.95C252.408 124.302 252.572 124.698 252.656 125.114C252.739 125.53 252.74 125.958 252.657 126.375C252.575 126.791 252.411 127.187 252.176 127.54Z" fill="#6C63FF"/>
<path d="M240.816 144.57L238.315 148.297L233.89 152.194C233.599 152.451 233.231 152.604 232.843 152.63C232.456 152.656 232.07 152.554 231.747 152.339C231.424 152.124 231.181 151.808 231.056 151.44C230.931 151.073 230.931 150.675 231.056 150.308L232.993 144.644L235.432 140.987L240.816 144.57Z" fill="#3F3D56"/>
<path d="M252.722 117.826L246.53 123.278C246.327 123.456 246.168 123.679 246.065 123.928C245.962 124.178 245.918 124.448 245.936 124.717C245.954 124.987 246.034 125.248 246.17 125.482C246.305 125.715 246.493 125.915 246.718 126.064L247.889 126.844L244.501 131.923C244.449 132.002 244.413 132.09 244.394 132.182C244.376 132.275 244.376 132.37 244.395 132.462C244.413 132.555 244.45 132.643 244.502 132.721C244.555 132.799 244.622 132.867 244.701 132.919C244.779 132.971 244.868 133.007 244.96 133.026C245.053 133.044 245.148 133.044 245.241 133.025C245.333 133.007 245.421 132.97 245.5 132.918C245.578 132.865 245.645 132.798 245.698 132.719L249.086 127.64L250.257 128.42C250.646 128.678 251.121 128.772 251.579 128.682C252.037 128.591 252.44 128.323 252.7 127.935C252.786 127.807 252.855 127.667 252.904 127.52L255.557 119.713C255.681 119.345 255.681 118.947 255.556 118.58C255.431 118.212 255.188 117.897 254.865 117.682C254.541 117.466 254.156 117.364 253.769 117.39C253.381 117.416 253.013 117.569 252.722 117.826Z" fill="#3F3D56"/>
<path d="M466.144 407.202H0.855843C0.629277 407.201 0.412209 407.111 0.252234 406.951C0.0922594 406.79 0.00244141 406.573 0.00244141 406.347C0.00244141 406.121 0.0922594 405.903 0.252234 405.743C0.412209 405.583 0.629277 405.493 0.855843 405.492H466.144C466.371 405.493 466.588 405.583 466.748 405.743C466.908 405.903 466.997 406.121 466.997 406.347C466.997 406.573 466.908 406.79 466.748 406.951C466.588 407.111 466.371 407.201 466.144 407.202Z" fill="#3F3D56"/>
<path d="M173.82 15.4579H154.412C154.031 15.4579 153.665 15.3066 153.395 15.0373C153.126 14.768 152.974 14.4027 152.974 14.0218C152.974 13.641 153.126 13.2757 153.395 13.0064C153.665 12.7371 154.031 12.5858 154.412 12.5858H173.82C174.201 12.5858 174.567 12.7371 174.837 13.0064C175.106 13.2757 175.258 13.641 175.258 14.0218C175.258 14.4027 175.106 14.768 174.837 15.0373C174.567 15.3066 174.201 15.4579 173.82 15.4579Z" fill="white"/>
<path d="M183.524 15.4579C184.318 15.4579 184.962 14.815 184.962 14.0218C184.962 13.2287 184.318 12.5858 183.524 12.5858C182.73 12.5858 182.086 13.2287 182.086 14.0218C182.086 14.815 182.73 15.4579 183.524 15.4579Z" fill="white"/>
</g>
<defs>
<clipPath id="clip0_0_1">
<rect width="467" height="408" fill="white"/>
</clipPath>
</defs>
</svg>
