<svg width="337" height="536" viewBox="0 0 337 536" fill="none" xmlns="http://www.w3.org/2000/svg">
<path d="M158.131 546.139C218.991 546.139 268.329 543.297 268.329 539.791C268.329 536.285 218.991 533.443 158.131 533.443C97.2698 533.443 47.9324 536.285 47.9324 539.791C47.9324 543.297 97.2698 546.139 158.131 546.139Z" fill="#D1D3D4"/>
<path d="M35.2357 261.253C34.6228 262.041 32.565 305.998 30.3103 308.252C24.1809 314.382 24.9689 301.685 24.9689 301.685C24.9689 301.685 13.2136 327.319 6.38365 325.371C-6.05032 321.825 6.86525 292.141 10.0394 286.121C13.0603 274.387 13.4544 250.942 13.4544 250.942" fill="white"/>
<path d="M7.10618 326.553C6.75908 326.552 6.4134 326.508 6.07731 326.422C4.94143 326.109 3.89359 325.537 3.01616 324.75C2.13873 323.964 1.45562 322.985 1.02055 321.89C-3.05114 312.346 6.18676 291.134 9.01067 285.727C11.9221 274.212 12.36 251.161 12.36 250.92C12.3713 250.632 12.4939 250.359 12.702 250.159C12.9102 249.959 13.1878 249.847 13.4764 249.848C13.621 249.847 13.7642 249.877 13.8973 249.933C14.0303 249.99 14.1506 250.073 14.2508 250.177C14.351 250.281 14.429 250.405 14.4803 250.54C14.5316 250.675 14.5549 250.819 14.549 250.964C14.549 251.927 14.1112 274.672 11.0903 286.383C11.1026 286.463 11.1026 286.544 11.0903 286.624C8.61663 291.352 -0.599391 312.302 3.12204 321.036C3.43327 321.831 3.92592 322.541 4.56067 323.112C5.19541 323.682 5.95466 324.096 6.7778 324.32C10.8495 325.48 19.3431 311.514 24.0496 301.225C24.1551 300.99 24.3404 300.799 24.5727 300.687C24.805 300.575 25.0694 300.548 25.3193 300.612C25.5657 300.681 25.7818 300.831 25.9327 301.037C26.0836 301.244 26.1606 301.495 26.1512 301.751C25.9542 304.728 26.4358 308.318 27.399 308.799C27.6835 308.931 28.4278 308.668 29.588 307.486C30.8358 305.581 32.3244 284.807 33.1343 273.643C34.0319 261.099 34.0756 261.012 34.4478 260.508C34.6252 260.279 34.8861 260.13 35.1733 260.093C35.4605 260.056 35.7506 260.135 35.9802 260.311C36.1694 260.46 36.3042 260.668 36.3635 260.901C36.4229 261.135 36.4036 261.381 36.3085 261.603C36.1115 262.478 35.7174 267.951 35.3015 273.73C33.7035 296.409 32.6527 307.464 31.1423 308.975C29.6318 310.485 27.793 311.339 26.4795 310.726C25.7399 310.208 25.1352 309.52 24.7163 308.72C24.2973 307.92 24.0762 307.032 24.0716 306.129C20.3501 313.506 12.951 326.553 7.10618 326.553Z" fill="#231F20"/>
<path d="M195.017 163.007L221.286 151.602C221.286 151.602 226.539 138.971 231.771 137.416C237.96 136.164 244.229 135.345 250.532 134.965C252.243 136.193 253.542 137.911 254.257 139.892C254.972 141.874 255.07 144.025 254.538 146.063C252.983 153.747 242.826 166.093 228.641 169.158L202.722 191.968" fill="white"/>
<path d="M202.722 193.063C202.566 193.061 202.411 193.028 202.268 192.964C202.125 192.9 201.996 192.807 201.891 192.691C201.795 192.584 201.723 192.459 201.677 192.323C201.63 192.188 201.612 192.044 201.622 191.901C201.632 191.759 201.671 191.619 201.736 191.492C201.801 191.364 201.891 191.251 202 191.158L227.875 168.348C228.017 168.219 228.191 168.128 228.378 168.085C242.235 165.086 251.977 153.024 253.422 145.844C253.884 144.078 253.824 142.215 253.249 140.482C252.674 138.749 251.609 137.22 250.182 136.081C244.069 136.441 237.989 137.238 231.99 138.467C228.116 139.627 223.628 148.646 222.227 152.018C222.114 152.284 221.902 152.496 221.636 152.609L195.367 164.014C195.1 164.13 194.798 164.135 194.527 164.028C194.256 163.922 194.038 163.712 193.922 163.445C193.806 163.177 193.801 162.875 193.908 162.604C194.014 162.333 194.224 162.116 194.491 162L220.279 150.77C221.352 148.296 226.08 137.898 231.224 136.366C237.498 135.082 243.855 134.248 250.247 133.87C250.477 133.852 250.706 133.906 250.904 134.023C252.814 135.36 254.27 137.248 255.076 139.435C255.882 141.623 256 144.004 255.414 146.26C253.837 154.185 243.768 166.816 228.97 170.165L203.292 192.8C203.13 192.939 202.933 193.03 202.722 193.063Z" fill="#231F20"/>
<path d="M248.321 119.247L215.769 160.752L234.771 163.007L264.958 122.64L248.321 119.247Z" fill="#231F20"/>
<path d="M234.77 164.167H234.639L215.638 161.978C215.447 161.955 215.266 161.882 215.112 161.767C214.958 161.652 214.838 161.498 214.762 161.321C214.684 161.143 214.656 160.946 214.683 160.752C214.71 160.559 214.791 160.377 214.915 160.227L247.467 118.634C247.591 118.474 247.757 118.352 247.946 118.282C248.136 118.213 248.342 118.198 248.54 118.24L265.199 121.633C265.377 121.67 265.542 121.752 265.68 121.871C265.818 121.989 265.924 122.141 265.987 122.312C266.055 122.481 266.077 122.666 266.05 122.847C266.023 123.028 265.948 123.198 265.833 123.341L235.646 163.664C235.549 163.809 235.419 163.93 235.267 164.018C235.115 164.105 234.945 164.156 234.77 164.167ZM217.827 159.964L234.267 161.912L263.075 123.428L248.78 120.385L217.827 159.964Z" fill="#231F20"/>
<path d="M249.35 120.057L220.738 156.505L233.391 158.366L261.587 122.64L249.35 120.057Z" fill="white"/>
<path d="M215.769 186.058L202.875 156.155L138.232 186.058L144.799 237.654C144.799 237.654 202.919 202.979 215.769 186.058Z" fill="#68E1FD"/>
<path d="M211.128 471.579C211.128 471.579 224.897 505.554 223.65 505.532C222.402 505.51 192.696 510.239 192.696 510.239C192.696 510.239 179.146 482.372 179.562 481.781C179.978 481.189 211.128 471.579 211.128 471.579Z" fill="white"/>
<path d="M192.696 511.333C192.491 511.333 192.29 511.276 192.116 511.168C191.942 511.059 191.801 510.904 191.711 510.72C177.92 482.262 178.183 481.868 178.577 481.233C178.971 480.598 179.102 480.226 210.866 470.529C211.127 470.453 211.407 470.476 211.653 470.593C211.899 470.71 212.094 470.913 212.201 471.163C225.729 504.569 225.073 505.532 224.657 506.189C224.554 506.349 224.411 506.48 224.242 506.568C224.073 506.657 223.884 506.699 223.694 506.692C222.533 506.692 204.649 509.516 192.937 511.377L192.696 511.333ZM180.809 482.35C182.189 485.83 188.843 499.862 193.331 509.034C199.001 508.115 217.411 505.182 222.468 504.547C221.395 500.431 214.893 483.86 210.471 472.915C200.008 476.111 184.421 480.992 180.809 482.35Z" fill="#231F20"/>
<path d="M223.65 505.532C223.65 505.532 272.488 509.166 273.802 518.097C275.115 527.029 200.687 539.791 200.687 539.791L192.697 510.239L223.65 505.532Z" fill="#231F20"/>
<path d="M200.686 540.864C200.449 540.867 200.217 540.792 200.026 540.649C199.836 540.507 199.699 540.305 199.636 540.076L191.646 510.523C191.601 510.377 191.589 510.222 191.612 510.07C191.635 509.919 191.691 509.774 191.777 509.648C191.859 509.519 191.969 509.409 192.097 509.326C192.225 509.243 192.37 509.189 192.521 509.166L223.475 504.438H223.737C232.034 505.05 273.517 508.619 274.874 517.944C276.232 527.27 218.571 537.821 200.883 540.864H200.686ZM194.119 511.136L201.475 538.5C236.5 532.436 273.43 523.045 272.707 518.207C272.269 515.098 258.544 509.188 223.694 506.583L194.119 511.136Z" fill="#231F20"/>
<path d="M108.767 464.246L94.6477 476.33L75.3181 449.864L95.7422 433.358L108.767 464.246Z" fill="white"/>
<path d="M94.6473 477.424C94.4958 477.41 94.3492 477.363 94.2171 477.288C94.085 477.212 93.9705 477.11 93.8811 476.986L74.5515 450.542C74.3818 450.314 74.3074 450.029 74.3442 449.747C74.3809 449.465 74.526 449.209 74.7485 449.032L95.1726 432.526C95.303 432.414 95.4599 432.337 95.6286 432.302C95.7972 432.268 95.9718 432.277 96.1358 432.329C96.3014 432.368 96.4552 432.447 96.5846 432.557C96.714 432.667 96.8153 432.807 96.8801 432.964L110.015 463.852C110.098 464.066 110.114 464.301 110.059 464.524C110.004 464.748 109.882 464.949 109.708 465.1L95.3697 477.205C95.1624 477.362 94.9064 477.439 94.6473 477.424ZM76.8281 450.061L94.8443 474.732L107.453 463.94L95.304 435.131L76.8281 450.061Z" fill="#231F20"/>
<path d="M94.6473 476.33C94.6473 476.33 104.52 527.226 96.114 525.475C87.7079 523.723 54.0618 467.683 54.0618 467.683L75.3177 449.864L94.6473 476.33Z" fill="#231F20"/>
<path d="M96.5518 526.591C96.3334 526.612 96.1134 526.612 95.895 526.591C87.292 524.796 56.4916 474.053 53.1204 468.296C52.9916 468.071 52.9451 467.808 52.989 467.552C53.033 467.296 53.1646 467.064 53.3612 466.895L74.6172 449.097C74.7172 448.988 74.8388 448.9 74.9745 448.84C75.1101 448.779 75.2568 448.748 75.4053 448.747C75.5536 448.762 75.697 448.809 75.8256 448.884C75.9541 448.96 76.0646 449.062 76.1495 449.185L95.501 475.629C95.5905 475.761 95.6502 475.91 95.6761 476.067C95.6761 476.176 97.8652 487.012 99.2224 498.505C102.178 522.059 99.3757 524.774 98.4563 525.715C98.2159 525.984 97.9228 526.201 97.5951 526.351C97.2675 526.502 96.9123 526.583 96.5518 526.591ZM55.4846 467.902C68.9475 490.274 90.5099 523.198 96.3548 524.402C96.4632 524.432 96.5777 524.431 96.6858 524.4C96.7939 524.369 96.8914 524.309 96.9677 524.227C100.536 520.702 96.8363 493.361 93.6403 476.767L75.1207 451.462L55.4846 467.902Z" fill="#231F20"/>
<path d="M152.811 233.933C152.811 233.933 236.938 352.494 237.113 363.089C237.507 383.71 109.511 472.674 109.511 472.674L87.949 433.424L166.384 362.804L92.6774 228.723L152.811 233.933Z" fill="#231F20"/>
<path d="M109.511 473.79H109.27C109.119 473.76 108.977 473.695 108.855 473.6C108.733 473.505 108.636 473.383 108.57 473.243L86.9857 434.037C86.8657 433.82 86.8242 433.569 86.8681 433.326C86.912 433.083 87.0386 432.862 87.2265 432.701L165.004 362.651L91.7141 229.336C91.6159 229.164 91.5671 228.968 91.5733 228.77C91.5795 228.572 91.6404 228.38 91.7492 228.215C91.858 228.049 92.0105 227.917 92.1897 227.833C92.369 227.749 92.568 227.716 92.7648 227.738L152.899 232.86C153.055 232.878 153.205 232.929 153.341 233.008C153.477 233.087 153.594 233.193 153.687 233.32C162.443 245.491 238.01 352.472 238.207 363.111C238.601 384.082 115.378 469.981 110.146 473.615C109.956 473.735 109.736 473.796 109.511 473.79ZM89.3061 433.73L109.883 471.12C115.531 467.157 144.361 446.865 172.798 424.777C228.006 381.871 236.128 367.751 236.04 363.132C235.887 354.748 175.753 268.192 152.198 234.984L94.6037 230.058L167.347 362.344C167.465 362.559 167.508 362.808 167.468 363.05C167.429 363.292 167.309 363.514 167.128 363.68L89.3061 433.73Z" fill="#231F20"/>
<path d="M69.1448 246.98L182.058 499.315L225.248 481.386L136.831 233.561L69.1448 246.98Z" fill="#231F20"/>
<path d="M182.057 500.41C181.847 500.409 181.641 500.346 181.466 500.229C181.291 500.113 181.154 499.947 181.072 499.753L68.1596 247.352C68.0845 247.203 68.0454 247.038 68.0454 246.87C68.0454 246.703 68.0845 246.538 68.1596 246.389C68.2338 246.245 68.3391 246.119 68.4678 246.021C68.5965 245.922 68.7454 245.853 68.9039 245.82L136.7 232.488C136.957 232.44 137.223 232.484 137.451 232.612C137.679 232.74 137.854 232.944 137.947 233.189L226.364 481.014C226.459 481.279 226.448 481.57 226.334 481.826C226.22 482.083 226.011 482.286 225.751 482.393L182.561 500.322C182.405 500.399 182.23 500.43 182.057 500.41ZM70.699 247.79L182.67 497.892L223.935 480.774L136.152 234.809L70.699 247.79Z" fill="#231F20"/>
<path d="M197.753 400.982C197.528 400.982 197.309 400.912 197.125 400.783C196.941 400.654 196.801 400.471 196.724 400.259L146.069 263.07C146.005 262.899 145.986 262.715 146.013 262.535C146.039 262.355 146.112 262.185 146.222 262.041L154.979 250.198C155.156 249.97 155.415 249.821 155.701 249.78C155.986 249.739 156.277 249.81 156.511 249.979C156.628 250.064 156.727 250.17 156.802 250.293C156.877 250.416 156.927 250.553 156.95 250.695C156.972 250.837 156.966 250.983 156.932 251.123C156.898 251.263 156.837 251.395 156.752 251.511L148.346 262.851L198.695 399.493C198.747 399.627 198.772 399.769 198.768 399.913C198.765 400.056 198.732 400.197 198.673 400.328C198.614 400.458 198.529 400.576 198.424 400.673C198.318 400.77 198.195 400.845 198.06 400.894C197.964 400.943 197.86 400.972 197.753 400.982Z" fill="white"/>
<path d="M103.316 72.2256C102.689 72.3529 102.04 72.3328 101.421 72.1669C100.803 72.0009 100.231 71.6936 99.7517 71.2692C99.2721 70.8448 98.8975 70.3148 98.6576 69.721C98.4176 69.1273 98.3188 68.4859 98.3688 67.8474L97.0773 45.9566C96.3778 39.3382 96.6136 32.6543 97.7778 26.1017C99.1788 19.8409 103.141 13.3831 109.424 12.1791C111.613 11.7851 113.802 12.0259 115.991 11.4786C119.997 10.4498 122.711 6.85968 126.104 4.49547C128.795 2.65288 131.918 1.53916 135.167 1.26293C138.417 0.986697 141.683 1.55739 144.646 2.91934C146.191 3.77552 147.801 4.50752 149.462 5.10842C154.76 6.61888 160.079 2.91933 165.552 2.48152C173.826 1.73723 181.138 8.4796 184.509 16.0538C189.084 26.3425 187.048 40.6372 176.979 45.6283C169.054 49.5467 160.736 47.1606 152.549 47.5328C143.945 47.9049 140.093 54.3627 133.788 59.3538C127.825 64.1726 120.764 67.4437 113.233 68.8763C110.431 69.3579 109.533 70.5838 107.016 71.4156C105.827 71.8597 104.582 72.1325 103.316 72.2256Z" fill="white"/>
<path d="M102.922 73.2545C102.197 73.3195 101.466 73.2305 100.777 72.9931C100.089 72.7558 99.4584 72.3756 98.9271 71.8774C98.3959 71.3792 97.9759 70.7744 97.6949 70.1025C97.4139 69.4306 97.2781 68.7069 97.2964 67.9788L95.983 45.9567C95.2722 39.2358 95.5155 32.4481 96.7054 25.7953C98.1283 19.5345 102.156 12.3762 109.227 11.0409C110.249 10.8759 111.279 10.7736 112.314 10.7344C113.433 10.7261 114.548 10.6014 115.641 10.3623C118.126 9.49936 120.375 8.06756 122.208 6.18111C123.259 5.28359 124.397 4.34228 125.47 3.53233C128.321 1.556 131.641 0.362281 135.099 0.0703438C138.556 -0.221593 142.029 0.398472 145.172 1.86862L146.748 2.67858C147.724 3.25325 148.759 3.72288 149.834 4.07959C152.952 4.60765 156.155 4.21195 159.05 2.94127C161.142 2.1997 163.307 1.68594 165.508 1.40892C174.637 0.598956 182.167 7.97616 185.582 15.6379C190.332 26.3206 188.231 41.3377 177.526 46.6353C171.769 49.503 165.793 49.1527 160.014 48.8244C157.567 48.635 155.111 48.5766 152.658 48.6492C146.726 48.9119 143.245 52.2175 139.195 56.0483C137.729 57.4494 136.218 58.8941 134.511 60.2295C128.377 65.2026 121.102 68.5727 113.342 70.0366C112.173 70.258 111.054 70.6881 110.037 71.3062C109.164 71.7972 108.248 72.2076 107.301 72.5321C106.039 72.9813 104.719 73.2467 103.382 73.3202L102.922 73.2545ZM136.7 2.17509C133.106 2.14634 129.59 3.22396 126.63 5.2617C125.559 6.05408 124.535 6.90932 123.565 7.82292C121.497 9.92915 118.963 11.519 116.166 12.4638C114.927 12.7257 113.667 12.8723 112.401 12.9016C111.47 12.9416 110.543 13.0293 109.621 13.1643C103.579 14.3026 100.077 20.6728 98.8069 26.2988C97.6688 32.7515 97.4477 39.3326 98.1502 45.8472L99.4855 67.8475C99.6168 70.1898 100.777 71.1749 103.295 71.0435C104.437 70.9723 105.564 70.7439 106.644 70.3649C107.472 70.0857 108.271 69.7264 109.03 69.2923C110.248 68.5519 111.59 68.04 112.992 67.7818C120.35 66.4012 127.248 63.2115 133.066 58.5001C134.708 57.2086 136.174 55.8075 137.619 54.4503C141.779 50.4881 145.719 46.7448 152.461 46.4383C154.995 46.3648 157.53 46.4233 160.057 46.6134C165.793 46.9418 171.2 47.2482 176.454 44.6432C186.02 39.9148 187.815 26.2769 183.48 16.5136C180.481 9.7712 173.608 2.85371 165.596 3.5761C163.55 3.83891 161.539 4.32335 159.598 5.0209C156.3 6.42958 152.657 6.82581 149.134 6.15922C147.905 5.76336 146.724 5.23487 145.609 4.58308C145.106 4.32039 144.624 4.0577 144.121 3.83879C141.804 2.73123 139.267 2.16245 136.7 2.17509Z" fill="#231F20"/>
<path d="M153.993 51.5389C153.993 51.5389 159.926 66.2714 157.584 68.5918C155.241 70.9122 149.834 67.8475 149.834 67.8475" fill="white"/>
<path d="M155.066 70.5838C153.018 70.4582 151.022 69.8827 149.222 68.8982C148.97 68.7553 148.784 68.5201 148.702 68.2424C148.62 67.9647 148.65 67.6661 148.784 67.4096C148.85 67.2836 148.941 67.1722 149.052 67.0818C149.162 66.9914 149.289 66.9238 149.425 66.8831C149.562 66.8423 149.705 66.8292 149.847 66.8444C149.989 66.8596 150.126 66.9029 150.251 66.9718C151.498 67.6504 155.395 69.1609 156.818 67.8256C157.781 66.8624 155.986 59.4414 152.987 51.9547C152.879 51.6848 152.884 51.3832 152.999 51.1163C153.114 50.8495 153.33 50.6392 153.6 50.5318C153.87 50.4244 154.171 50.4287 154.438 50.5436C154.705 50.6586 154.915 50.8748 155.023 51.1448C156.883 55.7637 160.933 66.8186 158.372 69.3798C157.93 69.7928 157.41 70.1123 156.842 70.3192C156.274 70.5261 155.67 70.6161 155.066 70.5838Z" fill="#231F20"/>
<path d="M155.679 34.0263C160.232 39.6084 156.708 48.6931 155.416 54.8225C153.577 63.4037 151.549 71.9557 149.33 80.4785C147.908 85.8637 133.766 83.0835 131.599 80.9382L129.213 99.2608C129.213 99.2608 123.85 108.564 113.517 100.946C103.185 93.3284 102.024 85.4915 102.024 85.4915L108.066 60.7768C108.066 60.7768 117.392 62.7689 125.207 52.7648C133.022 42.7607 136.283 25.6421 136.283 25.6421C136.283 25.6421 151.257 28.5973 155.679 34.0263Z" fill="white"/>
<path d="M121.245 105.062C118.177 104.918 115.237 103.789 112.86 101.844C102.309 94.0508 100.996 86.0169 100.952 85.6667C100.93 85.5289 100.93 85.3885 100.952 85.2507L107.016 60.536C107.078 60.2613 107.247 60.0223 107.484 59.8708C107.722 59.7192 108.01 59.6672 108.285 59.7261C108.657 59.7261 117.042 61.4116 124.331 52.13C131.884 42.4542 135.277 25.6202 135.277 25.4451C135.347 25.1608 135.518 24.9117 135.758 24.7446C135.876 24.6658 136.008 24.6115 136.148 24.5852C136.287 24.5589 136.43 24.561 136.568 24.5913C137.203 24.7008 151.892 27.6779 156.62 33.3477C160.736 38.4044 158.809 45.8035 157.364 51.7578C157.08 52.918 156.795 53.9469 156.576 55.0414C154.738 63.6226 152.68 72.2914 150.469 80.7631C150.187 81.6562 149.664 82.454 148.957 83.0683C148.25 83.6826 147.387 84.0894 146.463 84.2438C141.782 85.0932 136.956 84.5764 132.562 82.7552L130.373 99.4141C130.352 99.552 130.308 99.6854 130.242 99.8081C128.678 102.332 126.186 104.14 123.302 104.843C122.626 104.989 121.936 105.063 121.245 105.062ZM103.141 85.5353C103.404 86.7393 105.33 93.5255 114.086 100.093C115.25 101.112 116.616 101.873 118.095 102.326C119.574 102.779 121.133 102.913 122.668 102.72C124.878 102.173 126.801 100.813 128.053 98.9106L130.417 80.8288C130.446 80.6251 130.531 80.4335 130.663 80.2751C130.794 80.1168 130.966 79.9978 131.161 79.9313C131.353 79.8675 131.559 79.8583 131.757 79.9047C131.954 79.951 132.134 80.0512 132.278 80.194C136.421 82.2802 141.131 82.9639 145.697 82.1422C147.12 81.7701 147.886 81.1134 148.192 80.2158C150.381 71.7879 152.439 63.1629 154.256 54.6036C154.475 53.5529 154.759 52.4145 155.066 51.2324C156.445 45.7597 158.174 38.9517 154.759 34.7487C151.344 30.5456 140.465 27.7436 137.028 26.9555C136.174 30.9616 132.781 44.7309 125.973 53.4653C119.165 62.1997 111.591 62.2216 108.811 62.0246L103.141 85.5353Z" fill="#231F20"/>
<path d="M150.447 74.0207C150.447 74.0207 142.917 76.7571 140.771 69.1172Z" fill="white"/>
<path d="M147.448 75.5749C146.153 75.593 144.871 75.3081 143.705 74.7431C142.702 74.1886 141.829 73.4278 141.142 72.5108C140.455 71.5938 139.971 70.5416 139.721 69.4236C139.642 69.1333 139.682 68.8238 139.832 68.5631C139.982 68.3024 140.229 68.1119 140.52 68.0336C140.81 67.9552 141.119 67.9953 141.38 68.1452C141.641 68.295 141.831 68.5423 141.91 68.8326C142.08 69.6584 142.424 70.4387 142.918 71.1217C143.412 71.8048 144.046 72.3751 144.777 72.7948C146.476 73.4995 148.372 73.5694 150.119 72.9918C150.254 72.9415 150.398 72.9183 150.542 72.9235C150.686 72.9288 150.827 72.9623 150.958 73.0223C151.09 73.0822 151.208 73.1674 151.306 73.273C151.404 73.3786 151.48 73.5025 151.531 73.6376C151.581 73.7727 151.604 73.9164 151.599 74.0605C151.594 74.2046 151.56 74.3462 151.5 74.4773C151.44 74.6084 151.355 74.7264 151.249 74.8246C151.144 74.9228 151.02 74.9992 150.885 75.0496C149.772 75.3957 148.613 75.5728 147.448 75.5749Z" fill="#231F20"/>
<path d="M136.349 53.6842C136.558 51.4756 136.141 49.2528 135.145 47.2702C134.607 45.6503 133.825 44.1222 132.825 42.7388C132.323 42.0377 131.668 41.4604 130.909 41.0507C130.15 40.6411 129.308 40.4098 128.447 40.3746C127.688 40.408 126.946 40.6007 126.267 40.9402C125.588 41.2796 124.988 41.7582 124.506 42.3447C123.561 43.5311 122.895 44.9153 122.558 46.3945C121.753 49.6069 121.807 52.9743 122.713 56.1594C123.62 59.3445 125.348 62.2353 127.724 64.542L127.352 63.9291" fill="white"/>
<path d="M127.768 65.6584C127.49 65.6567 127.223 65.5468 127.024 65.3519C124.513 62.9052 122.686 59.8433 121.726 56.4712C120.766 53.0991 120.706 49.5344 121.551 46.1318C121.952 44.5299 122.699 43.0355 123.74 41.7536C124.318 41.0434 125.04 40.465 125.86 40.0573C126.679 39.6495 127.576 39.4218 128.491 39.3894C129.507 39.4444 130.499 39.7195 131.399 40.1958C132.298 40.672 133.084 41.338 133.701 42.1476C134.756 43.6317 135.589 45.2614 136.174 46.9855C137.235 49.1587 137.667 51.5849 137.422 53.9906C137.398 54.1325 137.347 54.2683 137.269 54.3898C137.192 54.5112 137.091 54.6159 136.973 54.6976C136.854 54.7793 136.721 54.8364 136.58 54.8653C136.439 54.8943 136.293 54.8946 136.152 54.8662C135.868 54.813 135.617 54.6496 135.453 54.4118C135.289 54.1739 135.226 53.8809 135.277 53.5965C135.429 51.5955 135.035 49.5907 134.138 47.7955C133.632 46.2687 132.894 44.8289 131.949 43.5268C131.535 42.9792 131.012 42.5234 130.413 42.1881C129.814 41.8527 129.152 41.6452 128.469 41.5785C127.867 41.6077 127.278 41.7653 126.742 42.041C126.205 42.3166 125.734 42.7038 125.36 43.1765C124.52 44.2328 123.936 45.469 123.653 46.7885C122.952 49.6058 122.949 52.5513 123.643 55.3701C124.337 58.1889 125.708 60.796 127.637 62.9658C127.779 62.9982 127.912 63.0596 128.029 63.1463C128.146 63.233 128.243 63.343 128.316 63.4693L128.688 64.0822C128.822 64.3095 128.872 64.5773 128.828 64.8378C128.784 65.0984 128.649 65.3348 128.447 65.5051C128.241 65.6231 128.005 65.6765 127.768 65.6584Z" fill="#231F20"/>
<path d="M131.599 80.982C131.599 80.982 124.725 77.2168 122.361 71.4814C122.361 71.4814 120.172 84.6159 130.614 90.811L131.599 80.982Z" fill="#231F20"/>
<path d="M130.614 91.9274C130.422 91.9234 130.233 91.8706 130.067 91.7741C119.121 85.3601 121.311 71.4814 121.311 71.3281C121.352 71.0943 121.468 70.8803 121.642 70.7184C121.816 70.5564 122.038 70.4554 122.274 70.4306C122.509 70.4021 122.747 70.4507 122.952 70.5691C123.158 70.6875 123.319 70.8694 123.412 71.0873C125.601 76.3849 132.168 80.0188 132.168 80.0625C132.357 80.1674 132.511 80.3244 132.612 80.5147C132.713 80.7051 132.756 80.9205 132.738 81.1352L131.731 90.9423C131.714 91.1236 131.651 91.2976 131.548 91.4473C131.444 91.5969 131.304 91.7171 131.14 91.796C130.98 91.8869 130.798 91.9324 130.614 91.9274ZM123.237 75.2247C123.214 77.8552 123.794 80.456 124.933 82.8276C126.071 85.1992 127.738 87.2787 129.804 88.9064L130.548 81.5949C127.742 79.9092 125.265 77.7286 123.237 75.159V75.2247Z" fill="#231F20"/>
<path d="M151.478 45.0422C152.107 43.419 152.105 41.9047 151.474 41.6599C150.843 41.4152 149.821 42.5327 149.192 44.156C148.562 45.7792 148.564 47.2935 149.195 47.5382C149.827 47.783 150.848 46.6654 151.478 45.0422Z" fill="#231F20"/>
<path d="M87.314 87.1114C87.314 87.1114 125.404 88.6438 135.167 109.265C144.931 129.886 141.735 200.593 147.382 206.548C153.03 212.502 166.471 241.573 166.033 242.777C165.595 243.981 64.1754 254.992 64.1754 254.992C64.1754 254.992 63.0371 231.875 58.3306 201.272C53.624 170.669 59.1624 83.4775 87.314 87.1114Z" fill="#68E1FD"/>
<path d="M104.148 290.718C103.9 290.726 103.657 290.64 103.469 290.477C103.241 290.299 103.091 290.039 103.054 289.751C103.017 289.464 103.096 289.174 103.272 288.944C117.042 271.563 109.971 262.325 109.664 261.931C109.572 261.821 109.502 261.694 109.46 261.557C109.417 261.42 109.403 261.276 109.417 261.133C109.431 260.99 109.474 260.851 109.543 260.725C109.612 260.599 109.705 260.488 109.818 260.399C110.042 260.217 110.328 260.132 110.615 260.16C110.902 260.189 111.166 260.33 111.35 260.552C111.7 260.99 119.909 271.498 105.002 290.302C104.901 290.432 104.771 290.537 104.623 290.609C104.475 290.681 104.313 290.718 104.148 290.718Z" fill="white"/>
<path d="M74.6393 87.002C74.6393 87.002 16.3003 150.376 6.38379 269.024L39.22 268.345C39.22 268.345 53.7993 207.358 94.4942 140.394L74.6393 87.002Z" fill="#68E1FD"/>
<path d="M162.531 233.67H162.312C162.085 233.619 161.879 233.498 161.723 233.326C161.566 233.154 161.466 232.938 161.436 232.707C161.064 231.656 157.583 225.636 154.519 220.339C150.141 212.786 145.631 205.015 144.755 202.629C143.77 199.915 142.566 180.738 140.903 155.783C140.202 144.837 139.589 135.424 139.239 131.878C138.185 124.329 136.471 116.887 134.117 109.637C134.027 109.347 134.056 109.033 134.197 108.764C134.339 108.495 134.581 108.293 134.872 108.203C135.162 108.113 135.476 108.142 135.745 108.284C136.014 108.426 136.216 108.668 136.306 108.958C138.719 116.354 140.463 123.951 141.516 131.659C141.888 135.249 142.501 144.794 143.179 155.739C144.361 174.149 145.959 199.346 146.923 201.972C147.733 204.161 152.395 212.217 156.533 219.354C163.888 232.072 163.866 232.247 163.713 232.926C163.633 233.168 163.472 233.375 163.256 233.511C163.04 233.647 162.784 233.703 162.531 233.67Z" fill="#231F20"/>
<path d="M44.0581 248.884C43.9422 248.905 43.8236 248.905 43.7078 248.884C43.4346 248.785 43.2108 248.583 43.0841 248.322C42.9573 248.06 42.9377 247.759 43.0292 247.483C43.3138 246.695 71.4872 167.451 100.887 129.777C100.974 129.662 101.084 129.567 101.209 129.496C101.334 129.425 101.473 129.38 101.616 129.364C101.759 129.348 101.903 129.36 102.041 129.401C102.179 129.442 102.308 129.51 102.419 129.601C102.533 129.689 102.628 129.799 102.699 129.924C102.77 130.049 102.815 130.188 102.831 130.33C102.848 130.473 102.835 130.618 102.794 130.756C102.754 130.894 102.686 131.023 102.594 131.134C73.348 168.545 45.3715 247.352 45.1088 248.162C45.0258 248.374 44.8814 248.555 44.6941 248.684C44.5069 248.813 44.2853 248.883 44.0581 248.884Z" fill="#231F20"/>
<path d="M239.389 158.366C239.565 150.485 241.031 142.232 245.957 136.125C247.226 134.593 249.218 133.104 251.013 133.936C251.615 134.305 252.118 134.815 252.48 135.421C252.843 136.027 253.053 136.712 253.093 137.416C253.142 138.82 253.431 140.204 253.947 141.51" fill="white"/>
<path d="M239.389 159.46C239.246 159.458 239.104 159.426 238.972 159.369C238.84 159.311 238.721 159.228 238.622 159.124C238.522 159.021 238.444 158.898 238.392 158.765C238.339 158.631 238.314 158.488 238.317 158.344C238.536 148.34 240.768 140.831 245.168 135.446C247.182 132.973 249.547 132.031 251.539 132.929C252.331 133.36 252.996 133.991 253.468 134.759C253.94 135.527 254.204 136.406 254.231 137.307C254.297 137.669 254.34 138.034 254.363 138.401C254.403 139.322 254.611 140.226 254.976 141.072C255.107 141.328 255.132 141.625 255.046 141.9C254.96 142.174 254.77 142.404 254.516 142.539C254.388 142.607 254.248 142.65 254.104 142.664C253.96 142.678 253.814 142.663 253.675 142.62C253.537 142.577 253.408 142.508 253.297 142.415C253.186 142.322 253.094 142.208 253.027 142.079C252.543 140.994 252.261 139.829 252.195 138.642C252.195 138.314 252.195 137.964 252.064 137.635C251.955 136.847 251.604 135.446 250.641 135.008C249.678 134.571 247.861 135.687 246.876 136.913C242.782 141.926 240.703 148.975 240.506 158.475C240.473 158.748 240.342 158.999 240.136 159.181C239.93 159.363 239.664 159.462 239.389 159.46Z" fill="#231F20"/>
<path d="M81.2942 64.1261C78.3986 62.0128 75.0967 60.5221 71.5965 59.7479C66.8424 59.3714 62.0929 60.5301 58.0462 63.0534C52.3841 65.83 47.5802 70.0891 44.1455 75.3779C42.4607 78.031 41.4678 81.0641 41.2575 84.1998C41.0472 87.3356 41.6261 90.4741 42.9415 93.3284C44.4698 95.8896 46.5388 98.0864 49.004 99.7651C51.4692 101.444 54.2712 102.564 57.2143 103.048C63.1011 103.993 69.0904 104.118 75.0115 103.42C80.6918 102.96 86.397 102.895 92.0863 103.223C103.754 104.099 114.984 107.93 126.455 110.141C133.701 111.52 130.833 103.858 128.097 101.012C123.456 96.3274 118.611 91.8617 113.561 87.6149C103.361 79.0488 92.5799 71.2003 81.2942 64.1261Z" fill="#68E1FD"/>
<path d="M108.461 105.062C108.252 105.055 108.048 104.994 107.869 104.887C101.56 100.832 94.2867 98.5271 86.7937 98.2078C79.3007 97.8885 71.8575 99.5665 65.2262 103.07C64.9827 103.175 64.7093 103.188 64.4567 103.107C64.2042 103.026 63.9897 102.856 63.8532 102.628C63.7168 102.401 63.6675 102.132 63.7147 101.87C63.7619 101.609 63.9023 101.374 64.1098 101.209C71.0904 97.4878 78.9375 95.6964 86.8415 96.0196C94.7454 96.3428 102.42 98.769 109.073 103.048C109.313 103.208 109.48 103.457 109.538 103.74C109.595 104.023 109.538 104.317 109.38 104.558C109.284 104.715 109.149 104.845 108.988 104.933C108.826 105.021 108.644 105.066 108.461 105.062Z" fill="#231F20"/>
<path d="M319.422 24.46H225.642C223.039 24.4658 220.545 25.5039 218.706 27.3465C216.867 29.1892 215.835 31.6859 215.835 34.2889V84.3313C215.847 86.9267 216.884 89.4122 218.721 91.2454C220.559 93.0787 223.047 94.1107 225.642 94.1165H236.981V113.818L248.343 94.1165H319.357C320.656 94.1368 321.947 93.899 323.155 93.4168C324.362 92.9347 325.462 92.2179 326.39 91.3078C327.319 90.3977 328.057 89.3125 328.564 88.1149C329.07 86.9174 329.333 85.6314 329.339 84.3313V34.2889C329.339 32.9908 329.082 31.7055 328.582 30.5072C328.083 29.309 327.351 28.2215 326.429 27.3077C325.507 26.3938 324.413 25.6717 323.21 25.1829C322.008 24.6941 320.72 24.4484 319.422 24.46Z" fill="white"/>
<path d="M236.982 114.869C236.888 114.89 236.791 114.89 236.697 114.869C236.462 114.814 236.253 114.679 236.105 114.487C235.958 114.296 235.881 114.06 235.887 113.818V95.2547H225.642C222.739 95.2547 219.955 94.1016 217.903 92.0489C215.85 89.9962 214.697 87.2122 214.697 84.3093V34.2889C214.697 31.386 215.85 28.602 217.903 26.5493C219.955 24.4966 222.739 23.3435 225.642 23.3435H319.422C322.325 23.3435 325.109 24.4966 327.162 26.5493C329.215 28.602 330.368 31.386 330.368 34.2889V84.3312C330.368 87.2341 329.215 90.0181 327.162 92.0708C325.109 94.1235 322.325 95.2766 319.422 95.2766H249.022L237.923 114.343C237.828 114.508 237.69 114.644 237.525 114.736C237.359 114.829 237.171 114.874 236.982 114.869ZM225.642 25.5544C223.32 25.5544 221.093 26.477 219.451 28.1191C217.808 29.7612 216.886 31.9884 216.886 34.3108V84.3312C216.886 86.6535 217.808 88.8807 219.451 90.5229C221.093 92.165 223.32 93.0875 225.642 93.0875H236.982C237.272 93.0875 237.55 93.2029 237.756 93.4081C237.961 93.6134 238.076 93.8918 238.076 94.1821V109.746L247.445 93.6348C247.546 93.4691 247.687 93.3319 247.856 93.2361C248.025 93.1403 248.215 93.0892 248.409 93.0875H319.422C321.745 93.0875 323.972 92.165 325.614 90.5229C327.256 88.8807 328.179 86.6535 328.179 84.3312V34.2889C328.179 31.9665 327.256 29.7393 325.614 28.0972C323.972 26.4551 321.745 25.5325 319.422 25.5325L225.642 25.5544Z" fill="#D1D3D4"/>
<path d="M272.423 75.8157H255.173C254.867 75.8348 254.566 75.7368 254.33 75.5416C254.094 75.3464 253.941 75.0687 253.903 74.7649C253.877 74.6083 253.884 74.4481 253.921 74.2939C253.959 74.1397 254.027 73.9946 254.122 73.8674C254.822 72.8385 255.523 71.8097 256.18 70.7589C257.442 68.8637 258.313 66.735 258.741 64.4981C258.785 64.0175 258.785 63.5339 258.741 63.0533V53.7279C258.724 51.946 259.02 50.1751 259.616 48.496C260.264 46.5768 261.386 44.8524 262.878 43.483C264.437 42.0323 266.333 40.9939 268.395 40.462C268.592 40.462 268.657 40.3526 268.657 40.1556C268.657 39.9585 268.657 39.1705 268.657 38.6889C268.662 37.7587 269.018 36.8645 269.652 36.1844C270.287 35.5044 271.155 35.0884 272.082 35.0194C273.01 34.9504 273.93 35.2334 274.658 35.812C275.386 36.3906 275.87 37.2224 276.013 38.1416C276.056 38.7976 276.056 39.4558 276.013 40.1118C276.013 40.3307 276.013 40.4182 276.297 40.4839C278.18 40.9627 279.925 41.8752 281.392 43.1485C282.859 44.4218 284.008 46.0207 284.747 47.8173C285.435 49.3868 285.814 51.0739 285.864 52.7865C285.864 54.5816 285.864 56.3985 285.864 58.1936C285.864 59.9886 285.864 61.3677 285.864 62.9658C285.864 64.6468 286.238 66.3068 286.958 67.8255C287.847 69.6968 288.902 71.4845 290.11 73.1669L290.592 73.8674C290.719 74.0628 290.787 74.2909 290.787 74.5241C290.787 74.7573 290.719 74.9854 290.592 75.1808C290.487 75.383 290.326 75.5505 290.127 75.6631C289.929 75.7757 289.703 75.8287 289.476 75.8157H272.423ZM273.692 39.9804C273.692 39.5645 273.692 39.1267 273.692 38.6889C273.693 38.3748 273.573 38.0726 273.357 37.8445C273.141 37.6164 272.846 37.4798 272.532 37.463C272.233 37.4427 271.937 37.5347 271.702 37.7209C271.468 37.9071 271.311 38.1742 271.262 38.47C271.23 38.9729 271.23 39.4775 271.262 39.9804H273.692Z" fill="#D1D3D4"/>
<path d="M278.136 78.3112C277.666 79.4106 276.883 80.3477 275.885 81.0063C274.887 81.6648 273.717 82.0159 272.521 82.0159C271.325 82.0159 270.156 81.6648 269.158 81.0063C268.16 80.3477 267.377 79.4106 266.906 78.3112H278.136Z" fill="#D1D3D4"/>
<path d="M319.882 105.084C328.333 105.084 335.183 98.2329 335.183 89.782C335.183 81.3311 328.333 74.4803 319.882 74.4803C311.431 74.4803 304.58 81.3311 304.58 89.782C304.58 98.2329 311.431 105.084 319.882 105.084Z" fill="white"/>
<path d="M319.882 106.178C316.641 106.178 313.473 105.218 310.777 103.418C308.082 101.618 305.98 99.0602 304.738 96.0667C303.496 93.0733 303.169 89.7788 303.798 86.5994C304.427 83.4201 305.984 80.4985 308.273 78.2037C310.561 75.9089 313.479 74.3439 316.656 73.7063C319.834 73.0687 323.13 73.3872 326.126 74.6215C329.123 75.8557 331.687 77.9505 333.494 80.641C335.301 83.3316 336.27 86.4973 336.278 89.7383C336.281 91.8944 335.859 94.0299 335.037 96.0229C334.214 98.016 333.007 99.8275 331.485 101.354C329.962 102.881 328.154 104.092 326.163 104.92C324.172 105.748 322.038 106.175 319.882 106.178ZM319.882 75.5312C317.072 75.5312 314.325 76.3644 311.989 77.9255C309.653 79.4866 307.832 81.7055 306.756 84.3015C305.681 86.8975 305.4 89.7541 305.948 92.51C306.496 95.2659 307.849 97.7974 309.836 99.7843C311.823 101.771 314.354 103.124 317.11 103.672C319.866 104.221 322.723 103.939 325.319 102.864C327.915 101.789 330.134 99.9677 331.695 97.6314C333.256 95.295 334.089 92.5482 334.089 89.7383C334.072 85.9797 332.568 82.3807 329.906 79.727C327.244 77.0734 323.641 75.5807 319.882 75.575V75.5312Z" fill="#D1D3D4"/>
<path d="M318.919 83.8496L315.241 86.8705L313.402 84.6815L319.203 79.9968H322.071V98.604H318.919V83.8496Z" fill="#D1D3D4"/>
</svg>
